<svg width="51" height="38" viewBox="0 0 51 38" fill="none" xmlns="http://www.w3.org/2000/svg">
<path d="M36.3509 8.64434C36.5258 8.61496 36.704 8.64785 36.8555 8.73476L36.9339 8.77158L36.9504 8.7796C37.0326 8.82065 37.1067 8.87626 37.1691 8.94378L37.3028 9.08839L37.3095 9.09579C37.343 9.13298 37.3727 9.17339 37.3983 9.21644L37.5319 9.44165L37.5377 9.4516C37.5511 9.47493 37.5632 9.49896 37.5741 9.52359L37.7077 9.82746C37.7155 9.84511 37.7226 9.86306 37.729 9.88126L37.8627 10.2612L37.8658 10.2704C37.8689 10.2796 37.8719 10.2889 37.8746 10.2982L38.0083 10.7509C38.0109 10.7597 38.0133 10.7686 38.0156 10.7774L38.1493 11.299L38.1517 11.3088C38.1525 11.3121 38.1533 11.3154 38.154 11.3187L38.2877 11.9046L38.2909 11.9195L38.4246 12.5648L38.4269 12.5762L38.5605 13.2753L38.5622 13.2842L38.6958 14.031L38.697 14.0379L38.8307 14.8261L38.8316 14.8313L38.9652 15.6541C38.9654 15.6553 38.9656 15.6566 38.9658 15.6579L39.0999 16.5108L39.2336 17.3813L39.2338 17.3829L39.3675 18.266L39.3676 18.2666L39.6347 20.0387L39.768 20.9118L39.9016 21.7692L40.0343 22.5957L40.167 23.3905L40.2994 24.1445L40.4314 24.8507L40.5626 25.502L40.6929 26.0929L40.8213 26.6148L40.9469 27.0617L40.967 27.1223L41.0888 26.7001L41.2169 26.1906L41.3468 25.6125L41.4779 24.9711L41.6098 24.2741L41.7422 23.5278L41.8751 22.7384L42.0081 21.9154L42.1412 21.0653C42.2061 20.6503 42.5952 20.3666 43.0102 20.4316C43.4253 20.4965 43.709 20.8855 43.6441 21.3005L43.5104 22.1542C43.5102 22.1555 43.51 22.1567 43.5098 22.1579L43.3762 22.9852C43.3759 22.9869 43.3756 22.9885 43.3753 22.9902L43.2417 23.784C43.2413 23.7862 43.2409 23.7884 43.2405 23.7906L43.1069 24.544C43.1064 24.5469 43.1059 24.5497 43.1053 24.5525L42.9717 25.2591C42.971 25.2628 42.9702 25.2665 42.9695 25.2701L42.8358 25.9238C42.8349 25.9286 42.8338 25.9333 42.8328 25.9381L42.6991 26.5332C42.6977 26.5395 42.6962 26.5458 42.6946 26.5521L42.561 27.0835C42.5588 27.092 42.5565 27.1005 42.5541 27.1089L42.4205 27.5721C42.417 27.5839 42.4133 27.5956 42.4094 27.6073L42.2757 27.9982C42.2699 28.0154 42.2634 28.0323 42.2563 28.049L42.1227 28.3644C42.1115 28.3906 42.0989 28.4163 42.0849 28.4411L41.9512 28.6782C41.9272 28.7208 41.8992 28.761 41.8674 28.7982L41.7338 28.9549C41.6755 29.0232 41.6056 29.0806 41.5273 29.1246L41.4743 29.1543C41.3216 29.2675 41.1312 29.32 40.9404 29.2996L40.8068 29.2853C40.6841 29.2722 40.5665 29.2294 40.4641 29.1607L40.3304 29.0711C40.2635 29.0263 40.2042 28.9711 40.1546 28.9076L40.0209 28.7365C39.9937 28.7017 39.9696 28.6646 39.9489 28.6256L39.8152 28.3744C39.8029 28.3513 39.7919 28.3276 39.782 28.3034L39.6483 27.9744C39.642 27.9588 39.6362 27.943 39.6309 27.927L39.4972 27.5229C39.4936 27.5119 39.4902 27.5009 39.4871 27.4898L39.3535 27.0141C39.3512 27.0062 39.3491 26.9982 39.3471 26.9901L39.2135 26.447C39.212 26.441 39.2106 26.4351 39.2093 26.4291L39.0756 25.8232C39.0746 25.8186 39.0737 25.8141 39.0728 25.8095L38.9391 25.146C38.9384 25.1425 38.9377 25.139 38.9371 25.1355L38.8034 24.4201C38.8029 24.4174 38.8024 24.4147 38.8019 24.412L38.6683 23.6509C38.6679 23.6488 38.6675 23.6467 38.6672 23.6446L38.5335 22.8444C38.5333 22.8428 38.533 22.8412 38.5327 22.8396L38.3991 22.0071C38.3989 22.0059 38.3987 22.0048 38.3986 22.0036L38.2649 21.146C38.2648 21.1452 38.2646 21.1444 38.2645 21.1436L38.1309 20.2683C38.1308 20.2678 38.1307 20.2674 38.1307 20.267L37.997 19.3814C37.997 19.3813 37.997 19.3812 37.997 19.3811L37.7297 17.6105L37.5967 16.7443L37.4637 15.8979L37.3305 15.0779L37.1978 14.2958L37.0656 13.5566L36.9338 12.8677L36.8029 12.2354L36.6732 11.667L36.5454 11.1681L36.4422 10.8186L36.404 10.9373L36.2777 11.3962L36.1489 11.9292L36.0184 12.5293L35.8871 13.1895L35.7553 13.9018L35.6228 14.6623L35.4901 15.4622L35.3567 16.2975L35.2235 17.155L35.0902 18.0303L35.0902 18.0303L34.8231 19.8033C34.823 19.8036 34.823 19.8038 34.8229 19.8041L34.6893 20.6858C34.6892 20.6863 34.6891 20.6869 34.689 20.6875L34.5553 21.5554C34.5552 21.5564 34.555 21.5573 34.5549 21.5582L34.4212 22.4049C34.421 22.4062 34.4208 22.4076 34.4206 22.4089L34.2869 23.227C34.2866 23.2288 34.2863 23.2306 34.286 23.2324L34.1524 24.0149C34.152 24.0172 34.1515 24.0196 34.1511 24.022L34.0175 24.7621C34.0169 24.7652 34.0163 24.7682 34.0157 24.7713L33.8821 25.4627C33.8813 25.4667 33.8805 25.4707 33.8797 25.4746L33.746 26.1114C33.7449 26.1166 33.7438 26.1218 33.7426 26.1269L33.6089 26.7036C33.6073 26.7104 33.6057 26.7173 33.6039 26.7241L33.4702 27.2357C33.4678 27.245 33.4652 27.2543 33.4624 27.2635L33.3287 27.7056C33.3247 27.7187 33.3204 27.7317 33.3157 27.7446L33.1821 28.1134C33.1751 28.1328 33.1673 28.1518 33.1587 28.1705L33.025 28.4628C33.0112 28.493 32.9955 28.5222 32.9779 28.5504L32.8442 28.7637C32.8132 28.8132 32.7766 28.8589 32.7351 28.9L32.6015 29.0325C32.5256 29.1077 32.4348 29.166 32.3349 29.2038L32.2267 29.2447C32.0785 29.3068 31.9126 29.3212 31.753 29.2825L31.6194 29.2501C31.5034 29.2219 31.3957 29.167 31.305 29.0895L31.1713 28.9755C31.1203 28.932 31.0753 28.882 31.0374 28.8266L30.9038 28.6315C30.8826 28.6006 30.8638 28.5682 30.8474 28.5346L30.7137 28.26C30.7038 28.2395 30.6948 28.2186 30.6867 28.1973L30.553 27.8455C30.5477 27.8316 30.5428 27.8174 30.5383 27.8032L30.4046 27.3774C30.4015 27.3674 30.3986 27.3574 30.3959 27.3474L30.2623 26.8512C30.2603 26.8439 30.2584 26.8366 30.2567 26.8292L30.123 26.2669C30.1217 26.2614 30.1205 26.2559 30.1193 26.2504L29.9856 25.6267C29.9847 25.6225 29.9839 25.6183 29.9831 25.6141L29.8494 24.9345C29.8488 24.9313 29.8481 24.928 29.8475 24.9248L29.7139 24.1951C29.7134 24.1926 29.713 24.1901 29.7125 24.1876L29.5789 23.4141C29.5786 23.4122 29.5782 23.4103 29.5779 23.4083L29.4443 22.5977C29.444 22.5963 29.4438 22.5948 29.4435 22.5934L29.3099 21.7526C29.3097 21.7516 29.3096 21.7505 29.3094 21.7495L29.1757 20.8858C29.1756 20.8851 29.1755 20.8844 29.1754 20.8838L29.0418 20.0045C29.0417 20.0042 29.0417 20.0039 29.0416 20.0035L28.908 19.1164V19.1164L28.7743 18.2289L28.6408 17.3497L28.5079 16.4895L28.3745 15.6484L28.2417 14.8407L28.1092 14.0705L27.9769 13.3448L27.8455 12.6727L27.7148 12.0586L27.5857 11.5107L27.4587 11.0343L27.3926 10.8208L27.3174 11.0663L27.1903 11.5479L27.061 12.101L26.9304 12.719L26.7986 13.3968L26.6666 14.1243L26.5342 14.8966L26.4012 15.7076L26.2678 16.5508L26.1346 17.4144L26.0013 18.2926L26.0013 18.2926L25.8677 19.1803L25.8677 19.1804L25.734 20.0672C25.734 20.0676 25.7339 20.0679 25.7338 20.0683L25.6002 20.9466C25.6001 20.9473 25.6 20.948 25.5999 20.9487L25.4662 21.811C25.4625 21.8348 25.4577 21.8584 25.4518 21.8818L25.0103 23.6201C25.0073 23.6319 25.004 23.6435 25.0005 23.6551C24.4061 25.6009 23.7501 27.0501 23.0085 27.9851C22.2523 28.9387 21.3012 29.469 20.2067 29.229C19.2176 29.012 18.3454 28.2014 17.5715 27.1466C16.7771 26.0636 15.9868 24.5845 15.2021 22.7929C15.0336 22.4081 15.2089 21.9597 15.5937 21.7912C15.9785 21.6227 16.427 21.798 16.5955 22.1828C17.3596 23.9274 18.0978 25.2924 18.7982 26.247C19.5191 27.2298 20.1079 27.6502 20.5326 27.7433C20.8518 27.8133 21.2672 27.7328 21.8166 27.0401C22.379 26.331 22.9661 25.1037 23.5405 23.2275L23.9685 21.5424L24.0966 20.7158L24.2299 19.8395L24.4971 18.0662C24.4971 18.0659 24.4972 18.0656 24.4972 18.0653L24.6312 17.1826L24.7648 16.316L24.8989 15.4685L24.8996 15.4643L25.0333 14.6487C25.0336 14.6469 25.0339 14.6451 25.0342 14.6432L25.1679 13.8638L25.1691 13.8565L25.3028 13.1199L25.3046 13.1105L25.4382 12.4231L25.4407 12.411L25.5744 11.7786L25.5779 11.7628L25.7115 11.191L25.7141 11.1805C25.7149 11.177 25.7158 11.1735 25.7168 11.17L25.8504 10.6636C25.8529 10.6541 25.8557 10.6445 25.8586 10.6351L25.9922 10.1985C25.9963 10.185 26.0009 10.1716 26.0057 10.1584L26.1394 9.79541L26.1451 9.78048C26.1509 9.76562 26.1572 9.75094 26.164 9.73647L26.2976 9.45019L26.3032 9.4385C26.3165 9.41133 26.3313 9.38497 26.3477 9.35957L26.4814 9.15244L26.4877 9.14284C26.5195 9.09514 26.5566 9.05118 26.5983 9.01181L26.7319 8.88561C26.8129 8.80915 26.9097 8.75141 27.0155 8.71646L27.1491 8.67229C27.2487 8.63938 27.3525 8.6279 27.4542 8.63682C27.6401 8.62032 27.8276 8.67268 27.9793 8.78702C28.0537 8.84306 28.1161 8.91146 28.1645 8.9882C28.2119 9.03087 28.2536 9.07931 28.2889 9.1324L28.4225 9.33377C28.4424 9.36367 28.4601 9.39495 28.4755 9.42736L28.6092 9.70802L28.6161 9.72298C28.6229 9.73802 28.6292 9.75327 28.6349 9.76871L28.7686 10.1263L28.7723 10.1365C28.776 10.1467 28.7794 10.1571 28.7827 10.1675L28.9163 10.5989L28.9207 10.6134C28.9221 10.6183 28.9234 10.6232 28.9247 10.6281L29.0584 11.1295L29.0612 11.1402C29.0621 11.1438 29.0629 11.1474 29.0638 11.151L29.1974 11.7183C29.1987 11.7236 29.1999 11.729 29.2011 11.7344L29.3347 12.3626C29.3356 12.3667 29.3364 12.3708 29.3372 12.3749L29.4709 13.0586L29.4727 13.0681L29.6064 13.8014L29.6077 13.8088L29.7413 14.5854L29.7423 14.591L29.876 15.4042C29.8762 15.4056 29.8764 15.407 29.8766 15.4085L30.0108 16.2543L30.1447 17.1214L30.2784 18.0015L30.2785 18.0024L30.5457 19.776L30.679 20.6532L30.8122 21.5138L30.9454 22.3513L31.0782 23.1571L31.2109 23.9248L31.3431 24.6466L31.4745 25.3148L31.605 25.9237L31.734 26.4664L31.8606 26.9365L31.9174 27.1173L32.0021 26.8369L32.1293 26.3501L32.2589 25.7909L32.3897 25.1679L32.5214 24.4867L32.6535 23.7553L32.7861 22.9787L32.9187 22.167L33.0519 21.3233L33.1852 20.4578L33.3189 19.5761L33.4525 18.689L33.4525 18.6888L33.5862 17.8024L33.5863 17.8013L33.7203 16.9217L33.8545 16.0577L33.9889 15.2164L34.1226 14.4109L34.1236 14.4048L34.2572 13.6375L34.2586 13.6297L34.3923 12.9071L34.3942 12.8969L34.5279 12.2253C34.5288 12.2209 34.5297 12.2166 34.5306 12.2122L34.6643 11.5973C34.6655 11.5916 34.6669 11.5859 34.6682 11.5802L34.8019 11.0274L34.8048 11.0159C34.8058 11.0121 34.8068 11.0082 34.8078 11.0044L34.9415 10.5184L34.946 10.5027C34.9476 10.4974 34.9492 10.4922 34.9509 10.487L35.0845 10.072L35.0883 10.0607C35.0921 10.0494 35.0962 10.0383 35.1005 10.0272L35.2342 9.68677L35.2411 9.66984C35.2482 9.65298 35.2559 9.63638 35.2642 9.62008L35.3978 9.35716L35.4049 9.34366C35.4216 9.31233 35.4405 9.28221 35.4614 9.25351L35.5951 9.07034L35.6033 9.05929C35.6449 9.00442 35.6937 8.95544 35.7486 8.91368L35.8822 8.81185L35.8915 8.80491C35.9876 8.73394 36.0992 8.68659 36.2172 8.66678L36.3509 8.64434Z" fill="black"/>
<path d="M10.1715 8.55779C10.9233 8.55779 11.6047 8.85911 12.1016 9.34752C12.9481 8.91587 13.8666 8.67946 14.8264 8.67946C19.0523 8.67946 22.478 13.2624 22.478 18.9156C22.478 21.8719 21.5412 24.5354 20.0431 26.404C19.8841 26.2393 19.6996 26.0228 19.4912 25.7387C19.3629 25.5639 19.2323 25.3726 19.0993 25.165C20.245 23.5815 20.9568 21.3667 20.9568 18.9156C20.9568 14.1024 18.2121 10.2004 14.8264 10.2004C14.1343 10.2004 13.469 10.3635 12.8484 10.664C12.8984 10.8715 12.9249 11.088 12.9249 11.3108C12.9249 12.8312 11.6921 14.0637 10.1715 14.0637C10.0276 14.0637 9.8863 14.0527 9.74837 14.0314C9.08402 15.4246 8.6959 17.1057 8.6959 18.9156C8.6959 23.7289 11.4406 27.6308 14.8264 27.6308C15.4432 27.6308 16.0387 27.5013 16.6003 27.2604C16.6927 27.3964 16.7854 27.528 16.8785 27.6548C17.0872 27.9394 17.3114 28.2195 17.5517 28.4834C16.7051 28.9153 15.7864 29.1518 14.8264 29.1518C10.6005 29.1518 7.1747 24.5689 7.1747 18.9156C7.1747 16.8849 7.61674 14.9923 8.37912 13.4006C7.79081 12.8957 7.41809 12.1467 7.41809 11.3108C7.41809 9.79033 8.65082 8.55779 10.1715 8.55779Z" fill="black"/>
</svg>
