<svg width="103" height="38" viewBox="0 0 103 38" fill="none" xmlns="http://www.w3.org/2000/svg">
<path d="M36.0916 8.38498C36.2665 8.35561 36.4447 8.38849 36.5961 8.47539L36.6746 8.51228L36.6911 8.5203C36.7733 8.56134 36.8474 8.61689 36.9098 8.68441L37.0435 8.82909L37.0502 8.83644C37.0837 8.87362 37.1134 8.91404 37.1389 8.95707L37.2726 9.18229L37.2784 9.19225C37.2918 9.21559 37.3039 9.23963 37.3148 9.26426L37.4484 9.56816C37.4562 9.58581 37.4633 9.60374 37.4697 9.62193L37.6033 10.0018L37.6065 10.011C37.6096 10.0202 37.6125 10.0295 37.6153 10.0389L37.749 10.4916C37.7516 10.5004 37.754 10.5092 37.7563 10.5181L37.89 11.0397L37.8924 11.0495C37.8932 11.0528 37.894 11.0561 37.8947 11.0594L38.0284 11.6453L38.0316 11.6602L38.1653 12.3055L38.1675 12.3169L38.3013 13.016L38.3029 13.0248L38.4365 13.7717L38.4377 13.7785L38.5714 14.5668L38.5722 14.5719L38.7059 15.3947C38.7061 15.396 38.7063 15.3973 38.7065 15.3985L38.8406 16.2515L38.9742 17.1219L38.9745 17.1236L39.1082 18.0067L39.1083 18.0072L39.3754 19.7794L39.5087 20.6524L39.6423 21.5098L39.7749 22.3364L39.9077 23.1311L40.0401 23.8852L40.1721 24.5914L40.3033 25.2427L40.4336 25.8336L40.562 26.3554L40.6876 26.8024L40.7076 26.8629L40.8295 26.4408L40.9576 25.9313L41.0875 25.3532L41.2186 24.7118L41.3505 24.0148L41.4829 23.2685L41.6158 22.479L41.7487 21.6561L41.8819 20.806C41.9468 20.391 42.3359 20.1072 42.7509 20.1722C43.1659 20.2371 43.4497 20.6262 43.3847 21.0412L43.2511 21.8949C43.2509 21.8961 43.2507 21.8974 43.2505 21.8986L43.1169 22.7259C43.1166 22.7275 43.1163 22.7292 43.116 22.7308L42.9824 23.5247C42.982 23.5269 42.9816 23.529 42.9812 23.5312L42.8476 24.2847C42.8471 24.2875 42.8465 24.2904 42.846 24.2932L42.7123 24.9998C42.7117 25.0034 42.7109 25.0071 42.7101 25.0108L42.5765 25.6645C42.5755 25.6692 42.5745 25.674 42.5735 25.6787L42.4398 26.2739C42.4384 26.2802 42.4369 26.2865 42.4353 26.2927L42.3017 26.8242C42.2995 26.8327 42.2972 26.8411 42.2948 26.8495L42.1611 27.3128C42.1577 27.3246 42.154 27.3363 42.15 27.3479L42.0164 27.7389C42.0106 27.7561 42.0041 27.773 41.997 27.7897L41.8634 28.105C41.8522 28.1313 41.8396 28.1569 41.8256 28.1818L41.6919 28.4188C41.6679 28.4614 41.6398 28.5016 41.6081 28.5389L41.4745 28.6955C41.4162 28.7638 41.3463 28.8213 41.268 28.8653L41.2151 28.895C41.0624 29.0082 40.8719 29.0607 40.6811 29.0403L40.5474 29.0259C40.4248 29.0128 40.3072 28.9701 40.2048 28.9014L40.0711 28.8118C40.0042 28.7669 39.9449 28.7117 39.8953 28.6483L39.7616 28.4771C39.7344 28.4424 39.7103 28.4053 39.6896 28.3663L39.5559 28.1151C39.5437 28.092 39.5325 28.0683 39.5227 28.0441L39.389 27.715C39.3827 27.6994 39.3769 27.6836 39.3716 27.6677L39.2379 27.2636C39.2343 27.2526 39.2309 27.2416 39.2278 27.2305L39.0942 26.7548C39.0919 26.7468 39.0898 26.7388 39.0878 26.7308L38.9541 26.1877C38.9527 26.1817 38.9513 26.1758 38.95 26.1698L38.8164 25.5639C38.8154 25.5593 38.8143 25.5547 38.8134 25.5502L38.6798 24.8867C38.6791 24.8832 38.6784 24.8797 38.6778 24.8762L38.5441 24.1608C38.5436 24.1581 38.5431 24.1554 38.5426 24.1527L38.409 23.3916C38.4086 23.3895 38.4082 23.3874 38.4079 23.3853L38.2742 22.5851C38.274 22.5835 38.2737 22.5819 38.2734 22.5803L38.1398 21.7477C38.1396 21.7466 38.1394 21.7454 38.1393 21.7443L38.0055 20.8866C38.0054 20.8858 38.0053 20.8851 38.0052 20.8843L37.8716 20.0089C37.8715 20.0085 37.8714 20.0081 37.8713 20.0077L37.7377 19.1221C37.7377 19.1219 37.7377 19.1218 37.7377 19.1217L37.4704 17.3511L37.3374 16.485L37.2044 15.6386L37.0711 14.8186L36.9385 14.0365L36.8062 13.2972L36.6746 12.6083L36.5435 11.976L36.4139 11.4077L36.2861 10.9089L36.1829 10.5593L36.1447 10.678L36.0184 11.1369L35.8896 11.6699L35.7591 12.27L35.6277 12.9301L35.496 13.6425L35.3635 14.4029L35.2308 15.2029L35.0973 16.0382L34.9642 16.8957L34.8308 17.771L34.5637 19.544C34.5637 19.5442 34.5637 19.5445 34.5636 19.5447L34.4299 20.4265C34.4298 20.427 34.4298 20.4276 34.4297 20.4282L34.296 21.2961C34.2959 21.297 34.2958 21.298 34.2956 21.2989L34.1619 22.1455C34.1617 22.1468 34.1615 22.1482 34.1613 22.1496L34.0276 22.9676C34.0273 22.9694 34.027 22.9712 34.0267 22.973L33.893 23.7556C33.8926 23.7579 33.8922 23.7603 33.8918 23.7627L33.7581 24.5027C33.7576 24.5058 33.757 24.5089 33.7565 24.5119L33.6227 25.2034C33.622 25.2074 33.6212 25.2113 33.6204 25.2153L33.4867 25.8521C33.4856 25.8572 33.4845 25.8624 33.4833 25.8676L33.3497 26.4442C33.3481 26.4511 33.3464 26.4579 33.3446 26.4647L33.2109 26.9764C33.2084 26.9857 33.2058 26.995 33.203 27.0042L33.0694 27.4463C33.0654 27.4594 33.0611 27.4724 33.0564 27.4853L32.9228 27.8541C32.9158 27.8734 32.9079 27.8925 32.8994 27.9112L32.7657 28.2035C32.752 28.2336 32.7362 28.2629 32.7186 28.291L32.5849 28.5043C32.5539 28.5538 32.5173 28.5995 32.4758 28.6407L32.3421 28.7732C32.2663 28.8484 32.1755 28.9067 32.0756 28.9445L31.9673 28.9853C31.8192 29.0475 31.6533 29.0618 31.4937 29.0231L31.3601 28.9907C31.2441 28.9626 31.1364 28.9076 31.0457 28.8302L30.9121 28.7162C30.8611 28.6727 30.816 28.6226 30.7781 28.5673L30.6445 28.3721C30.6233 28.3413 30.6045 28.3089 30.5881 28.2752L30.4544 28.0006C30.4445 27.9801 30.4354 27.9592 30.4273 27.938L30.2937 27.5862C30.2884 27.5722 30.2835 27.5581 30.279 27.5438L30.1453 27.118C30.1422 27.1081 30.1393 27.0981 30.1366 27.0881L30.003 26.5919C30.001 26.5846 29.9991 26.5773 29.9974 26.5699L29.8637 26.0075C29.8624 26.0021 29.8612 25.9966 29.86 25.9911L29.7263 25.3674C29.7254 25.3632 29.7246 25.359 29.7237 25.3548L29.5901 24.6752C29.5895 24.672 29.5888 24.6687 29.5882 24.6655L29.4546 23.9358C29.4541 23.9333 29.4537 23.9308 29.4533 23.9283L29.3195 23.1548C29.3192 23.1529 29.3189 23.1509 29.3186 23.149L29.185 22.3384C29.1847 22.337 29.1845 22.3354 29.1842 22.334L29.0506 21.4932C29.0504 21.4922 29.0502 21.4912 29.0501 21.4902L28.9165 20.6264C28.9164 20.6258 28.9162 20.6251 28.9161 20.6244L28.7825 19.7452C28.7824 19.7449 28.7824 19.7445 28.7823 19.7442L28.515 17.9696L28.3814 17.0904L28.2486 16.2301L28.1152 15.3891L27.9824 14.5813L27.8499 13.8112L27.7176 13.0854L27.5861 12.4134L27.4555 11.7993L27.3264 11.2514L27.1994 10.775L27.1332 10.5615L27.0581 10.807L26.931 11.2886L26.8017 11.8417L26.6711 12.4597L26.5393 13.1374L26.4073 13.8649L26.2748 14.6373L26.1419 15.4483L26.0085 16.2915L25.8753 17.1551L25.7421 18.0333L25.4747 19.8078C25.4747 19.8082 25.4746 19.8086 25.4746 19.8089L25.3409 20.6873C25.3408 20.688 25.3407 20.6887 25.3406 20.6894L25.2069 21.5517C25.2032 21.5755 25.1984 21.5991 25.1924 21.6225L24.7509 23.3608C24.748 23.3725 24.7447 23.3842 24.7411 23.3958C24.1467 25.3416 23.4908 26.7908 22.7493 27.7258C21.993 28.6794 21.0419 29.2097 19.9473 28.9696C18.9583 28.7527 18.0861 27.942 17.3123 26.8872C16.5178 25.8043 15.7274 24.3252 14.9428 22.5336C14.7743 22.1488 14.9496 21.7004 15.3344 21.5319C15.7192 21.3634 16.1677 21.5387 16.3362 21.9234C17.1003 23.668 17.8385 25.033 18.5388 25.9876C19.2598 26.9704 19.8486 27.3908 20.2733 27.484C20.5925 27.554 21.0079 27.4735 21.5573 26.7808C22.1197 26.0717 22.7068 24.8443 23.2812 22.9681L23.7092 21.2831L23.8373 20.4564L23.9707 19.5802L24.2378 17.8068C24.2378 17.8066 24.2379 17.8063 24.2379 17.806L24.3718 16.9233L24.5055 16.0567L24.6397 15.2091L24.774 14.3894C24.7743 14.3876 24.7746 14.3857 24.7749 14.3839L24.9085 13.6044L24.9098 13.5972L25.0435 12.8606L25.0453 12.8512L25.1789 12.1638L25.1814 12.1516L25.3151 11.5193L25.3185 11.5035L25.4523 10.9316L25.4548 10.9212C25.4557 10.9177 25.4565 10.9141 25.4574 10.9106L25.5911 10.4043C25.5937 10.3947 25.5963 10.3852 25.5992 10.3758L25.7329 9.93917C25.737 9.92567 25.7416 9.91232 25.7465 9.89907L25.8801 9.53608L25.8857 9.52114C25.8916 9.50628 25.8979 9.49162 25.9047 9.47716L26.0383 9.19082L26.0439 9.17917C26.0571 9.152 26.072 9.12564 26.0884 9.10024L26.2221 8.89308L26.2284 8.88354C26.2602 8.83584 26.2973 8.79182 26.339 8.75244L26.4726 8.62624C26.5536 8.54979 26.6504 8.4921 26.7562 8.45716L26.8899 8.41292C26.9894 8.38003 27.0932 8.36856 27.1949 8.37747C27.3807 8.36097 27.5682 8.41333 27.7199 8.52764C27.7943 8.58369 27.8568 8.65215 27.9052 8.72889C27.9525 8.77156 27.9943 8.81999 28.0296 8.87308L28.1632 9.07441C28.1831 9.10431 28.2008 9.13562 28.2162 9.16803L28.3499 9.44871L28.3568 9.46365C28.3635 9.47869 28.3698 9.49396 28.3756 9.50941L28.5093 9.86691L28.513 9.87721C28.5167 9.88743 28.5201 9.89773 28.5233 9.9081L28.657 10.3396L28.6613 10.3541C28.6628 10.3589 28.6641 10.3639 28.6654 10.3688L28.7991 10.8702L28.8019 10.8809C28.8028 10.8845 28.8037 10.8881 28.8045 10.8916L28.9381 11.4589C28.9394 11.4643 28.9406 11.4697 28.9418 11.475L29.0754 12.1033C29.0763 12.1074 29.0771 12.1115 29.0779 12.1156L29.2134 12.8088L29.3471 13.5421L29.3483 13.5495L29.482 14.326L29.6166 15.1449C29.6168 15.1463 29.6171 15.1477 29.6174 15.1491L29.7515 15.9949L29.8854 16.8621L30.0191 17.7422L30.0193 17.7431L30.2864 19.5167L30.4197 20.3939L30.5529 21.2545L30.6861 22.0919L30.8189 22.8977L30.9516 23.6654L31.0838 24.3873L31.2152 25.0555L31.3457 25.6644L31.4747 26.2071L31.6013 26.6772L31.658 26.858L31.7428 26.5776L31.87 26.0908L31.9997 25.5316L32.1304 24.9086L32.2621 24.2273L32.3941 23.496L32.5269 22.7194L32.6595 21.9076L32.7927 21.064L32.926 20.1984L33.0596 19.3168L33.1931 18.4297V18.4295L33.3269 17.543L33.327 17.5419L33.461 16.6624L33.5951 15.7983L33.7296 14.957L33.8632 14.1515L33.8643 14.1455L33.9979 13.3781L34.133 12.6477L34.1349 12.6376L34.2686 11.966C34.2695 11.9616 34.2704 11.9572 34.2713 11.9528L34.4049 11.338C34.4062 11.3323 34.4075 11.3265 34.4089 11.3208L34.5426 10.7681L34.5455 10.7566C34.5465 10.7527 34.5475 10.7489 34.5485 10.7451L34.6822 10.2591L34.6867 10.2433C34.6883 10.2381 34.6899 10.2328 34.6915 10.2276L34.8253 9.81263L34.829 9.8014C34.8328 9.79015 34.8369 9.77895 34.8412 9.76789L34.9749 9.42744L34.9818 9.41047C34.9888 9.39362 34.9966 9.37704 35.0049 9.36075L35.1385 9.09779L35.1455 9.08429C35.1622 9.05298 35.1812 9.02289 35.2021 8.99421L35.3358 8.81103L35.344 8.79997C35.3856 8.7451 35.4345 8.6961 35.4893 8.65435L35.6229 8.55255L35.6322 8.54563C35.7283 8.47466 35.8399 8.42725 35.9579 8.40744L36.0916 8.38498Z" fill="black"/>
<path fill-rule="evenodd" clip-rule="evenodd" d="M72.6775 28.7853H72.0418V27.7442H71.9652C71.8897 27.9146 71.7825 28.09 71.6437 28.2702C71.5049 28.448 71.321 28.5977 71.0921 28.7195C70.8656 28.8413 70.5819 28.9022 70.241 28.9022C69.7807 28.9022 69.3777 28.7804 69.0319 28.5368C68.6861 28.2933 68.4157 27.9536 68.2209 27.5177C68.0285 27.0818 67.9324 26.574 67.9324 25.9945C67.9324 25.4173 68.0285 24.9119 68.2209 24.4784C68.4157 24.0425 68.6873 23.7041 69.0355 23.463C69.3838 23.2195 69.7893 23.0976 70.252 23.0976C70.5929 23.0976 70.8766 23.1586 71.103 23.2803C71.3295 23.3996 71.511 23.5482 71.6474 23.7259C71.7837 23.9037 71.8897 24.0766 71.9652 24.2447H72.0236V21.304H72.6775V28.7853ZM70.3177 23.6895C69.9427 23.6895 69.6261 23.7917 69.368 23.9962C69.1122 24.1984 68.9174 24.4724 68.7835 24.8182C68.652 25.164 68.5862 25.5524 68.5862 25.9835C68.5862 26.4194 68.6531 26.8127 68.7871 27.1634C68.921 27.514 69.1159 27.7929 69.3716 27.9999C69.6297 28.2044 69.9451 28.3067 70.3177 28.3067C70.6806 28.3067 70.9898 28.2081 71.2455 28.0108C71.5012 27.8111 71.6961 27.5372 71.83 27.189C71.9664 26.8383 72.0346 26.4364 72.0346 25.9835C72.0346 25.5354 71.9676 25.1396 71.8337 24.7963C71.6997 24.4505 71.5049 24.1802 71.2492 23.9854C70.9935 23.7881 70.683 23.6895 70.3177 23.6895Z" fill="black"/>
<path d="M9.91217 8.29845C10.664 8.29845 11.3454 8.59978 11.8423 9.08817C12.6887 8.65652 13.6073 8.4201 14.567 8.4201C18.7929 8.4201 22.2187 13.003 22.2187 18.6563C22.2187 21.6126 21.2819 24.2761 19.7838 26.1446C19.6248 25.98 19.4403 25.7634 19.2319 25.4794C19.1036 25.3045 18.973 25.1133 18.84 24.9057C19.9857 23.3222 20.6975 21.1074 20.6975 18.6563C20.6975 13.8431 17.9528 9.94111 14.567 9.94111C13.875 9.94111 13.2096 10.1042 12.5891 10.4047C12.639 10.6121 12.6656 10.8287 12.6656 11.0514C12.6656 12.5719 11.4328 13.8044 9.91217 13.8044C9.76829 13.8044 9.62699 13.7934 9.48907 13.7721C8.82472 15.1653 8.43657 16.8464 8.43657 18.6563C8.43658 23.4696 11.1813 27.3715 14.567 27.3715C15.1839 27.3715 15.7794 27.242 16.341 27.001C16.4334 27.1371 16.5261 27.2687 16.6192 27.3955C16.8279 27.68 17.052 27.9602 17.2924 28.2241C16.4458 28.6559 15.5271 28.8925 14.567 28.8925C10.3412 28.8925 6.9154 24.3096 6.91539 18.6563C6.91539 16.6256 7.35745 14.7329 8.11984 13.1412C7.53153 12.6364 7.15877 11.8874 7.15876 11.0514C7.15876 9.53101 8.39151 8.29845 9.91217 8.29845Z" fill="black"/>
<path d="M54.4604 27.8209H54.5261L57.2402 21.304H58.0292V28.7853H57.3863V22.747H57.3279L54.8037 28.7853H54.1827L51.6586 22.747H51.6001V28.7853H50.9572V21.304H51.7462L54.4604 27.8209Z" fill="black"/>
<path d="M60.5443 28.7853H59.8905V23.1744H60.5443V28.7853Z" fill="black"/>
<path d="M64.6054 23.1013C64.9829 23.1013 65.3141 23.1804 65.599 23.3387C65.8864 23.4946 66.1092 23.7248 66.2675 24.0292C66.4282 24.3336 66.5086 24.7074 66.5086 25.1506V28.7853H65.8583V25.1908C65.8583 24.7306 65.7293 24.3664 65.4712 24.0986C65.2155 23.8307 64.8721 23.6967 64.4411 23.6967C64.1464 23.6967 63.8846 23.76 63.6557 23.8867C63.4268 24.0133 63.2453 24.196 63.1114 24.4346C62.9799 24.6708 62.9142 24.9521 62.9142 25.2784V28.7853H62.2639V23.1744H62.8958V24.0547H62.9543C63.0858 23.7674 63.2904 23.5372 63.568 23.3643C63.848 23.189 64.1939 23.1013 64.6054 23.1013Z" fill="black"/>
<path d="M60.2228 21.2748C60.3567 21.2748 60.4712 21.3212 60.5662 21.4137C60.6612 21.5038 60.7087 21.6134 60.7087 21.7424C60.7087 21.8715 60.6612 21.9823 60.5662 22.0748C60.4712 22.1649 60.3567 22.21 60.2228 22.21C60.0889 22.21 59.9744 22.1649 59.8795 22.0748C59.7845 21.9823 59.737 21.8715 59.737 21.7424C59.737 21.6134 59.7845 21.5038 59.8795 21.4137C59.9744 21.3212 60.0889 21.2748 60.2228 21.2748Z" fill="black"/>
<path fill-rule="evenodd" clip-rule="evenodd" d="M53.949 8.40836C54.6041 8.40837 55.1898 8.56057 55.706 8.86497C56.2247 9.16938 56.6338 9.60894 56.9334 10.1836C57.2353 10.7559 57.3863 11.4452 57.3863 12.2512C57.3863 13.0573 57.2353 13.7477 56.9334 14.3224C56.7298 14.7113 56.4756 15.0382 56.1708 15.3034L57.2074 16.6347H55.8923L55.2733 15.8503C54.8689 16.0127 54.4275 16.0941 53.949 16.0941C53.2939 16.0941 52.7069 15.9419 52.1882 15.6375C51.672 15.3307 51.2628 14.8911 50.9608 14.3188C50.6613 13.7441 50.5116 13.0549 50.5116 12.2512C50.5116 11.4452 50.6613 10.7559 50.9608 10.1836C51.2628 9.60892 51.672 9.16938 52.1882 8.86497C52.7069 8.56056 53.2939 8.40836 53.949 8.40836ZM53.949 9.6248C53.5423 9.6248 53.183 9.72581 52.8713 9.92794C52.5596 10.1276 52.3149 10.4236 52.1371 10.8157C51.9618 11.2053 51.8741 11.6838 51.8741 12.2512C51.8741 12.8186 51.9617 13.2984 52.1371 13.6905C52.3148 14.0801 52.5596 14.376 52.8713 14.5781C53.183 14.7778 53.5423 14.8777 53.949 14.8777C54.1436 14.8777 54.3273 14.8545 54.5001 14.8087L53.4887 13.4786H54.7161L55.3538 14.3054C55.5142 14.1362 55.6488 13.9313 55.7572 13.6905C55.9349 13.2984 56.0238 12.8186 56.0238 12.2512C56.0238 11.6838 55.9349 11.2053 55.7572 10.8157C55.5818 10.4236 55.3383 10.1276 55.0266 9.92794C54.7149 9.72582 54.3557 9.62481 53.949 9.6248Z" fill="black"/>
<path fill-rule="evenodd" clip-rule="evenodd" d="M67.1752 10.3079C67.4456 10.3079 67.7147 10.3395 67.9826 10.4029C68.2504 10.4662 68.4952 10.5709 68.7168 10.717C68.9384 10.8607 69.1162 11.0567 69.2501 11.3051C69.3865 11.5535 69.4546 11.864 69.4546 12.2366V15.9918H68.1835V15.221H68.1396C68.0592 15.3769 67.946 15.523 67.7999 15.6594C67.6562 15.7933 67.4748 15.9017 67.2556 15.9845C67.0389 16.0648 66.7844 16.105 66.4921 16.105C66.1366 16.105 65.8164 16.0417 65.5315 15.9151C65.249 15.786 65.0249 15.5961 64.8593 15.3453C64.6961 15.0944 64.6146 14.7851 64.6146 14.4174C64.6146 14.1008 64.673 13.839 64.7899 13.632C64.9068 13.425 65.0663 13.2595 65.2684 13.1353C65.4706 13.0111 65.6983 12.9173 65.9515 12.854C66.2072 12.7882 66.4715 12.7407 66.7442 12.7115C67.073 12.6774 67.3397 12.6469 67.5442 12.6201C67.7488 12.5909 67.8973 12.5471 67.9899 12.4886C68.0848 12.4277 68.1324 12.334 68.1324 12.2073V12.1855C68.1324 11.9103 68.0507 11.6972 67.8875 11.5462C67.7244 11.3952 67.4894 11.3197 67.1826 11.3197C66.8587 11.3197 66.6017 11.3903 66.4118 11.5316C66.2243 11.6728 66.0977 11.8396 66.0319 12.032L64.7972 11.8567C64.8946 11.5158 65.0554 11.2308 65.2794 11.0019C65.5035 10.7706 65.7774 10.5977 66.1013 10.4832C66.4252 10.3663 66.7832 10.3079 67.1752 10.3079ZM68.136 13.3178C68.0946 13.3519 68.0239 13.3836 67.9241 13.4128C67.8267 13.442 67.7171 13.4676 67.5954 13.4895C67.4736 13.5115 67.3531 13.531 67.2337 13.548C67.1144 13.5651 67.0108 13.5797 66.9232 13.5919C66.7259 13.6186 66.5494 13.6625 66.3935 13.7234C66.2377 13.7843 66.1147 13.8695 66.0246 13.9791C65.9345 14.0862 65.8894 14.225 65.8894 14.3955C65.8894 14.639 65.9783 14.8229 66.1561 14.9471C66.3339 15.0713 66.5604 15.1334 66.8355 15.1334C67.101 15.1334 67.3311 15.081 67.5259 14.9763C67.7207 14.8691 67.8705 14.7279 67.9753 14.5526C68.0824 14.3773 68.136 14.1861 68.136 13.9791V13.3178Z" fill="black"/>
<path d="M78.7477 10.3809H79.8546V11.4037H78.7477V14.3042C78.7477 14.4819 78.7745 14.6184 78.8281 14.7133C78.8841 14.8059 78.9572 14.8692 79.0473 14.9033C79.1374 14.9374 79.2372 14.9544 79.3468 14.9544C79.4296 14.9544 79.5051 14.9483 79.5733 14.9361C79.6439 14.9239 79.6975 14.913 79.734 14.9033L79.9569 15.937C79.8862 15.9614 79.7851 15.9882 79.6536 16.0174C79.5246 16.0466 79.3662 16.0637 79.1787 16.0685C78.8476 16.0783 78.5492 16.0284 78.2838 15.9188C78.0184 15.8068 77.8077 15.6338 77.6518 15.4001C77.4984 15.1663 77.423 14.874 77.4254 14.5233V11.4037H76.629V10.3809H77.4254V9.03667H78.7477V10.3809Z" fill="black"/>
<path d="M59.9415 13.749C59.9415 14.1045 60.039 14.387 60.2338 14.5964C60.4286 14.8058 60.6844 14.9105 61.001 14.9105C61.1958 14.9105 61.3845 14.8631 61.5671 14.7681C61.7498 14.6731 61.8995 14.5319 62.0164 14.3443C62.1357 14.1544 62.1954 13.917 62.1954 13.632V10.3809H63.5177V15.9918H62.2356V14.9946H62.1771C62.0505 15.3087 61.8423 15.5656 61.5525 15.7653C61.2652 15.965 60.9108 16.0648 60.4895 16.0648C60.1218 16.0648 59.7967 15.9833 59.5142 15.8201C59.2342 15.6545 59.0149 15.4146 58.8566 15.1005C58.6983 14.7839 58.6192 14.4016 58.6192 13.9535V10.3809H59.9415V13.749Z" fill="black"/>
<path d="M82.2828 13.749C82.2828 14.1045 82.3802 14.387 82.575 14.5964C82.7699 14.8058 83.0256 14.9105 83.3422 14.9105C83.537 14.9105 83.7258 14.8631 83.9084 14.7681C84.091 14.6731 84.2408 14.5319 84.3577 14.3443C84.477 14.1544 84.5367 13.917 84.5367 13.632V10.3809H85.859V15.9918H84.5769V14.9946H84.5184C84.3918 15.3087 84.1836 15.5656 83.8938 15.7653C83.6064 15.965 83.252 16.0648 82.8307 16.0648C82.463 16.0648 82.138 15.9833 81.8555 15.8201C81.5754 15.6545 81.3562 15.4146 81.1979 15.1005C81.0396 14.7839 80.9605 14.4016 80.9605 13.9535V10.3809H82.2828V13.749Z" fill="black"/>
<path d="M73.7871 10.3079C74.1742 10.3079 74.5115 10.3907 74.7989 10.5563C75.0887 10.7219 75.3128 10.9617 75.4711 11.2759C75.6318 11.59 75.7109 11.9712 75.7085 12.4192V15.9918H74.3862V12.6239C74.3862 12.2488 74.2887 11.9553 74.0939 11.7435C73.9015 11.5316 73.6348 11.4257 73.2939 11.4257C73.0625 11.4257 72.8568 11.4768 72.6766 11.5791C72.4988 11.679 72.3588 11.8238 72.2565 12.0138C72.1567 12.2037 72.1067 12.4339 72.1067 12.7042V15.9918H70.7844V10.3809H72.0483V11.3343H72.114C72.2431 11.0202 72.4489 10.7705 72.7313 10.5855C73.0163 10.4004 73.3682 10.3079 73.7871 10.3079Z" fill="black"/>
<path d="M93.3558 10.3079C93.872 10.3079 94.2933 10.471 94.6196 10.7973C94.946 11.1237 95.1092 11.5998 95.1092 12.2257V15.9918H93.7831V12.4302C93.7831 12.082 93.6906 11.8275 93.5055 11.6667C93.3204 11.5036 93.0939 11.422 92.826 11.422C92.507 11.422 92.2574 11.5218 92.0772 11.7215C91.8994 11.9188 91.8106 12.1758 91.8106 12.4923V15.9918H90.5138V12.3754C90.5138 12.0856 90.4261 11.8543 90.2508 11.6814C90.0778 11.5085 89.8513 11.422 89.5713 11.422C89.3814 11.422 89.2085 11.4707 89.0526 11.5681C88.8968 11.6631 88.7726 11.7983 88.68 11.9736C88.5875 12.1465 88.5412 12.3486 88.5412 12.58V15.9918H87.2189V10.3809H88.4827V11.3343H88.5485C88.6654 11.0129 88.859 10.762 89.1293 10.5818C89.3996 10.3992 89.7223 10.3079 90.0974 10.3079C90.4772 10.3079 90.7975 10.4004 91.058 10.5855C91.321 10.7681 91.5062 11.0177 91.6133 11.3343H91.6717C91.7959 11.0226 92.0054 10.7743 92.3 10.5892C92.5971 10.4017 92.9491 10.3079 93.3558 10.3079Z" fill="black"/>
</svg>
